<svg width="420" height="419" xmlns="http://www.w3.org/2000/svg" xmlns:xlink="http://www.w3.org/1999/xlink" xml:space="preserve" overflow="hidden"><defs><filter id="fx0" x="-10%" y="-10%" width="120%" height="120%" filterUnits="userSpaceOnUse" primitiveUnits="userSpaceOnUse"><feComponentTransfer color-interpolation-filters="sRGB"><feFuncR type="discrete" tableValues="0 0"/><feFuncG type="discrete" tableValues="0 0"/><feFuncB type="discrete" tableValues="0 0"/><feFuncA type="linear" slope="0.4" intercept="0"/></feComponentTransfer><feGaussianBlur stdDeviation="1.77778 1.77778"/></filter><clipPath id="clip1"><rect x="306" y="163" width="420" height="419"/></clipPath><clipPath id="clip2"><rect x="36" y="36" width="351" height="351"/></clipPath></defs><g clip-path="url(#clip1)" transform="translate(-306 -163)"><g clip-path="url(#clip2)" filter="url(#fx0)" transform="translate(305 162)"><g><g><g><g><path d="M362.484 320.513 309.49 267.518C302.282 260.31 292.531 257.767 283.204 259.463L264.55 240.808C281.084 219.61 290.835 192.477 290.835 163.648 290.835 93.6948 233.601 36.4604 163.648 36.4604 93.6948 36.4604 36.4604 93.6948 36.4604 163.648 36.4604 233.601 93.6948 290.835 163.648 290.835 192.477 290.835 219.186 281.084 240.808 264.55L259.463 283.204C257.767 292.531 260.31 302.282 267.518 309.49L320.513 362.484C326.448 368.42 334.079 371.388 341.71 371.388 349.342 371.388 356.973 368.42 362.908 362.484 373.931 350.614 373.931 331.959 362.484 320.513ZM163.224 264.974C107.261 264.974 61.474 219.186 61.474 163.224 61.474 107.261 107.261 61.474 163.224 61.474 219.186 61.474 264.974 107.261 264.974 163.224 264.974 219.186 219.186 264.974 163.224 264.974Z" fill="#7030A0" transform="matrix(1.00246 0 0 1 6.82843 6.82843)"/></g></g></g></g></g><g><g><g><path d="M362.484 320.513 309.49 267.518C302.282 260.31 292.531 257.767 283.204 259.463L264.55 240.808C281.084 219.61 290.835 192.477 290.835 163.648 290.835 93.6948 233.601 36.4604 163.648 36.4604 93.6948 36.4604 36.4604 93.6948 36.4604 163.648 36.4604 233.601 93.6948 290.835 163.648 290.835 192.477 290.835 219.186 281.084 240.808 264.55L259.463 283.204C257.767 292.531 260.31 302.282 267.518 309.49L320.513 362.484C326.448 368.42 334.079 371.388 341.71 371.388 349.342 371.388 356.973 368.42 362.908 362.484 373.931 350.614 373.931 331.959 362.484 320.513ZM163.224 264.974C107.261 264.974 61.474 219.186 61.474 163.224 61.474 107.261 107.261 61.474 163.224 61.474 219.186 61.474 264.974 107.261 264.974 163.224 264.974 219.186 219.186 264.974 163.224 264.974Z" fill="#7030A0" transform="matrix(1.00246 0 0 1 309 166)"/></g></g></g></g></svg>